<?xml version="1.0" encoding="utf-8"?>
<!-- Generator: Adobe Illustrator 19.0.0, SVG Export Plug-In . SVG Version: 6.00 Build 0)  -->
<svg version="1.1" id="Layer_2" xmlns="http://www.w3.org/2000/svg" xmlns:xlink="http://www.w3.org/1999/xlink" x="0px" y="0px"
	 viewBox="0 0 500 500" style="enable-background:new 0 0 500 500;" xml:space="preserve">
<style type="text/css">
	.st0{fill:#EFE6CE;}
	.st1{fill:none;stroke:#BFD9D0;stroke-width:9.7794;stroke-miterlimit:10;}
	.st2{fill:none;stroke:#864741;stroke-width:9.7794;stroke-linecap:round;stroke-linejoin:round;stroke-miterlimit:10;}
	.st3{fill:#A18F88;stroke:#864741;stroke-width:9.7794;stroke-linecap:round;stroke-linejoin:round;stroke-miterlimit:10;}
	
		.st4{clip-path:url(#XMLID_149_);fill:#C0DAD1;stroke:#864741;stroke-width:9.7794;stroke-linecap:round;stroke-linejoin:round;stroke-miterlimit:10;}
	.st5{fill:none;stroke:#864741;stroke-width:10.7573;stroke-linejoin:round;stroke-miterlimit:10;}
	.st6{fill:#C0DAD1;stroke:#864741;stroke-width:9.7794;stroke-linecap:round;stroke-linejoin:round;stroke-miterlimit:10;}
	.st7{fill:#C0DAD1;stroke:#864741;stroke-width:9.8119;stroke-linejoin:round;stroke-miterlimit:10;}
	.st8{fill:#A18F88;}
	.st9{fill:none;stroke:#864741;stroke-width:9.8119;stroke-linejoin:round;stroke-miterlimit:10;}
	.st10{fill:#82713D;stroke:#864741;stroke-width:9.7794;stroke-linejoin:round;stroke-miterlimit:10;}
	.st11{fill:#7C9A3D;}
	.st12{fill:none;stroke:#864741;stroke-width:9.7794;stroke-linejoin:round;stroke-miterlimit:10;}
	.st13{fill:#C0DAD1;stroke:#864741;stroke-width:9.7794;stroke-linejoin:round;stroke-miterlimit:10;}
	.st14{fill:#C3554C;stroke:#864741;stroke-width:7.7835;stroke-linecap:round;stroke-linejoin:round;stroke-miterlimit:10;}
	.st15{fill:#F1645B;}
	.st16{fill:none;stroke:#864741;stroke-width:7.7835;stroke-linecap:round;stroke-linejoin:round;stroke-miterlimit:10;}
	.st17{fill:#B97A2B;stroke:#864741;stroke-width:9.7794;stroke-linecap:round;stroke-linejoin:round;stroke-miterlimit:10;}
	.st18{fill:#EDAC20;stroke:#864741;stroke-width:9.7794;stroke-linecap:round;stroke-linejoin:round;stroke-miterlimit:10;}
	.st19{fill:none;stroke:#BFD9D0;stroke-width:9.7794;stroke-linecap:round;stroke-linejoin:round;stroke-miterlimit:10;}
</style>
<rect id="XMLID_147_" class="st0" width="500" height="500"/>
<g id="XMLID_1_">
	<path id="XMLID_34_" class="st1" d="M229.2,368.1c-7.8,0-14.2-6.4-14.2-14.2v-0.5c0-7.8,6.4-14.2,14.2-14.2"/>
	<g id="XMLID_2_">
		<line id="XMLID_3_" class="st2" x1="195.1" y1="444.1" x2="307.6" y2="444.1"/>
		<path id="XMLID_4_" class="st2" d="M338.9,399.8h-1.4c-11.2,0-20.4-9.2-20.4-20.4V359h21.8c11.2,0,20.4,9.2,20.4,20.4v0
			C359.3,390.6,350.1,399.8,338.9,399.8z"/>
		<g id="XMLID_7_">
			<path id="XMLID_6_" class="st3" d="M263.3,440.7h-24c-29.7,0-53.8-24.1-53.8-53.8V359h131.5v27.9
				C317.1,416.6,293,440.7,263.3,440.7z"/>
			<g id="XMLID_14_">
				<defs>
					<path id="XMLID_19_" d="M317.1,386.9v-19.2c-0.9-3-2.1-5.9-3.5-8.7H212.7c-3.8,7.6-6,16.2-6,25.2c0,31.2,25.3,56.4,56.4,56.4
						c1.9,0,3.9-0.1,5.8-0.3C296,437.6,317.1,414.7,317.1,386.9z"/>
				</defs>
				<clipPath id="XMLID_149_">
					<use xlink:href="#XMLID_19_"  style="overflow:visible;"/>
				</clipPath>
				<path id="XMLID_10_" class="st4" d="M263.3,440.7h-24c-29.7,0-53.8-24.1-53.8-53.8V359h131.5v27.9
					C317.1,416.6,293,440.7,263.3,440.7z"/>
			</g>
		</g>
		<line id="XMLID_5_" class="st2" x1="251.3" y1="379.3" x2="251.3" y2="420.4"/>
	</g>
	<line id="XMLID_8_" class="st5" x1="251.3" y1="359" x2="251.3" y2="255.8"/>
	<g id="XMLID_17_">
		<polyline id="XMLID_12_" class="st3" points="251.3,255.8 224.7,255.8 224.7,219.2 251.3,219.2 		"/>
		<polyline id="XMLID_11_" class="st6" points="251.3,219.2 278,219.2 278,255.8 251.3,255.8 		"/>
	</g>
	<g id="XMLID_16_">
		<path id="XMLID_15_" class="st7" d="M302.3,215.5h-102c-7.6,0-13.7-6.2-13.7-13.7v-39.6h129.5v39.6
			C316.1,209.3,309.9,215.5,302.3,215.5z"/>
		<path id="XMLID_18_" class="st8" d="M225.2,198.9v-36.7h-38.6v36.7c0,7,8.4,12.7,18.6,12.7h38.6
			C233.5,211.6,225.2,205.9,225.2,198.9z"/>
		<path id="XMLID_13_" class="st9" d="M302.3,215.5h-102c-7.6,0-13.7-6.2-13.7-13.7v-39.6h129.5v39.6
			C316.1,209.3,309.9,215.5,302.3,215.5z"/>
	</g>
	<g id="XMLID_29_">
		<path id="XMLID_20_" class="st10" d="M102.9,97.1c23.7,23.7,20.7,65,20.7,65s-41.3,2.9-65-20.7s-20.7-65-20.7-65
			S79.2,73.4,102.9,97.1z"/>
		<path id="XMLID_31_" class="st11" d="M55.1,76.9c-0.2,8.5,0.2,42.4,20.8,63c13.8,13.8,33.7,18.6,47.8,20.1
			c0.2-8.5-0.2-42.4-20.8-63C89.1,83.2,69.2,78.5,55.1,76.9z"/>
		<path id="XMLID_28_" class="st12" d="M102.9,97.1c23.7,23.7,20.7,65,20.7,65s-41.3,2.9-65-20.7s-20.7-65-20.7-65
			S79.2,73.4,102.9,97.1z"/>
		<line id="XMLID_27_" class="st2" x1="41.9" y1="80.3" x2="84.8" y2="123.2"/>
	</g>
	<g id="XMLID_75_">
		<path id="XMLID_79_" class="st10" d="M57,302.4c23.7-23.7,65-20.7,65-20.7s2.9,41.3-20.7,65s-65,20.7-65,20.7S33.3,326.1,57,302.4
			z"/>
		<path id="XMLID_78_" class="st11" d="M36.8,350.2c8.5,0.2,42.4-0.2,63-20.8c13.8-13.8,18.6-33.7,20.1-47.8
			c-8.5-0.2-42.4,0.2-63,20.8C43.1,316.3,38.4,336.1,36.8,350.2z"/>
		<path id="XMLID_77_" class="st12" d="M57,302.4c23.7-23.7,65-20.7,65-20.7s2.9,41.3-20.7,65c-23.7,23.7-65,20.7-65,20.7
			S33.3,326.1,57,302.4z"/>
		<line id="XMLID_76_" class="st2" x1="40.2" y1="363.5" x2="83.1" y2="320.6"/>
	</g>
	<g id="XMLID_45_">
		<path id="XMLID_49_" class="st13" d="M67.7,191.2"/>
		<circle id="XMLID_48_" class="st14" cx="51.5" cy="201.8" r="21.6"/>
		<path id="XMLID_47_" class="st15" d="M59.6,181.7c-7.9,3.2-13.5,11-13.5,20c0,9.1,5.6,16.8,13.5,20c7.9-3.2,13.5-11,13.5-20
			C73.1,192.7,67.5,184.9,59.6,181.7z"/>
		<circle id="XMLID_46_" class="st16" cx="51.5" cy="201.8" r="21.6"/>
	</g>
	<g id="XMLID_50_">
		<path id="XMLID_54_" class="st13" d="M67.7,239.7"/>
		<circle id="XMLID_53_" class="st14" cx="51.5" cy="250.2" r="21.6"/>
		<path id="XMLID_52_" class="st15" d="M59.6,230.2c-7.9,3.2-13.5,11-13.5,20c0,9.1,5.6,16.8,13.5,20c7.9-3.2,13.5-11,13.5-20
			C73.1,241.1,67.5,233.4,59.6,230.2z"/>
		<circle id="XMLID_51_" class="st16" cx="51.5" cy="250.2" r="21.6"/>
	</g>
	<g id="XMLID_38_">
		<path id="XMLID_21_" class="st13" d="M44,215"/>
		<circle id="XMLID_36_" class="st14" cx="27.8" cy="225.5" r="21.6"/>
		<path id="XMLID_40_" class="st15" d="M35.9,205.5c-7.9,3.2-13.5,11-13.5,20c0,9.1,5.6,16.8,13.5,20c7.9-3.2,13.5-11,13.5-20
			C49.4,216.5,43.8,208.7,35.9,205.5z"/>
		<circle id="XMLID_37_" class="st16" cx="27.8" cy="225.5" r="21.6"/>
	</g>
	<g id="XMLID_39_">
		<path id="XMLID_44_" class="st13" d="M87.2,215"/>
		<circle id="XMLID_43_" class="st14" cx="71" cy="225.5" r="21.6"/>
		<path id="XMLID_42_" class="st15" d="M79.1,205.5c-7.9,3.2-13.5,11-13.5,20c0,9.1,5.6,16.8,13.5,20c7.9-3.2,13.5-11,13.5-20
			C92.6,216.5,87,208.7,79.1,205.5z"/>
		<circle id="XMLID_41_" class="st16" cx="71" cy="225.5" r="21.6"/>
	</g>
	<line id="XMLID_85_" class="st2" x1="123.7" y1="162.1" x2="152.7" y2="191.1"/>
	<line id="XMLID_87_" class="st2" x1="152.7" y1="122.5" x2="152.7" y2="215.5"/>
	<path id="XMLID_89_" class="st12" d="M152.7,215.5l-5,6c-12.2,14.7-20.5,32.2-24,51l-1.7,9.2"/>
	<line id="XMLID_91_" class="st2" x1="95.2" y1="219.2" x2="110.3" y2="204"/>
	<line id="XMLID_92_" class="st2" x1="110.3" y1="204" x2="152.7" y2="204"/>
	<path id="XMLID_93_" class="st2" d="M184.7,242.8c-1.8,0.2-12.8,1.5-22.2-6.5c-8.4-7.2-9.6-16.9-9.8-18.9"/>
	<g id="XMLID_128_">
		<path id="XMLID_132_" class="st10" d="M397.1,98.5c-23.7,23.7-20.7,65-20.7,65s41.3,2.9,65-20.7s20.7-65,20.7-65
			S420.8,74.9,397.1,98.5z"/>
		<path id="XMLID_131_" class="st11" d="M444.9,78.4c0.2,8.5-0.2,42.4-20.8,63c-13.8,13.8-33.7,18.6-47.8,20.1
			c-0.2-8.5,0.2-42.4,20.8-63C410.9,84.7,430.8,80,444.9,78.4z"/>
		<path id="XMLID_130_" class="st12" d="M397.1,98.5c-23.7,23.7-20.7,65-20.7,65s41.3,2.9,65-20.7s20.7-65,20.7-65
			S420.8,74.9,397.1,98.5z"/>
		<line id="XMLID_129_" class="st2" x1="458.1" y1="81.8" x2="415.2" y2="124.6"/>
	</g>
	<g id="XMLID_123_">
		<path id="XMLID_127_" class="st10" d="M443,303.9c-23.7-23.7-65-20.7-65-20.7s-2.9,41.3,20.7,65s65,20.7,65,20.7
			S466.7,327.6,443,303.9z"/>
		<path id="XMLID_126_" class="st11" d="M463.2,351.7c-8.5,0.2-42.4-0.2-63-20.8c-13.8-13.8-18.6-33.7-20.1-47.8
			c8.5-0.2,42.4,0.2,63,20.8C456.9,317.7,461.6,337.6,463.2,351.7z"/>
		<path id="XMLID_125_" class="st12" d="M443,303.9c-23.7-23.7-65-20.7-65-20.7s-2.9,41.3,20.7,65c23.7,23.7,65,20.7,65,20.7
			S466.7,327.6,443,303.9z"/>
		<line id="XMLID_124_" class="st2" x1="459.8" y1="364.9" x2="416.9" y2="322.1"/>
	</g>
	<g id="XMLID_118_">
		<path id="XMLID_122_" class="st13" d="M432.3,192.7"/>
		<circle id="XMLID_121_" class="st14" cx="448.5" cy="203.2" r="21.6"/>
		<path id="XMLID_120_" class="st15" d="M440.4,183.2c7.9,3.2,13.5,11,13.5,20c0,9.1-5.6,16.8-13.5,20c-7.9-3.2-13.5-11-13.5-20
			C426.9,194.2,432.5,186.4,440.4,183.2z"/>
		<circle id="XMLID_119_" class="st16" cx="448.5" cy="203.2" r="21.6"/>
	</g>
	<g id="XMLID_113_">
		<path id="XMLID_117_" class="st13" d="M432.3,241.2"/>
		<circle id="XMLID_116_" class="st14" cx="448.5" cy="251.7" r="21.6"/>
		<path id="XMLID_115_" class="st15" d="M440.4,231.6c7.9,3.2,13.5,11,13.5,20c0,9.1-5.6,16.8-13.5,20c-7.9-3.2-13.5-11-13.5-20
			C426.9,242.6,432.5,234.9,440.4,231.6z"/>
		<circle id="XMLID_114_" class="st16" cx="448.5" cy="251.7" r="21.6"/>
	</g>
	<g id="XMLID_108_">
		<path id="XMLID_112_" class="st13" d="M456,216.5"/>
		<circle id="XMLID_111_" class="st14" cx="472.2" cy="227" r="21.6"/>
		<path id="XMLID_110_" class="st15" d="M464.1,207c7.9,3.2,13.5,11,13.5,20c0,9.1-5.6,16.8-13.5,20c-7.9-3.2-13.5-11-13.5-20
			C450.6,217.9,456.2,210.2,464.1,207z"/>
		<circle id="XMLID_109_" class="st16" cx="472.2" cy="227" r="21.6"/>
	</g>
	<g id="XMLID_103_">
		<path id="XMLID_107_" class="st13" d="M412.8,216.5"/>
		<circle id="XMLID_106_" class="st14" cx="429" cy="227" r="21.6"/>
		<path id="XMLID_105_" class="st15" d="M420.9,207c7.9,3.2,13.5,11,13.5,20c0,9.1-5.6,16.8-13.5,20c-7.9-3.2-13.5-11-13.5-20
			C407.4,217.9,413,210.2,420.9,207z"/>
		<circle id="XMLID_104_" class="st16" cx="429" cy="227" r="21.6"/>
	</g>
	<line id="XMLID_102_" class="st2" x1="376.3" y1="163.5" x2="347.3" y2="192.6"/>
	<line id="XMLID_101_" class="st2" x1="347.3" y1="124" x2="347.3" y2="217"/>
	<path id="XMLID_100_" class="st12" d="M347.3,217l5,6c12.2,14.7,20.5,32.2,24,51l1.7,9.2"/>
	<line id="XMLID_99_" class="st2" x1="407.4" y1="221" x2="389.7" y2="205.5"/>
	<line id="XMLID_98_" class="st2" x1="389.7" y1="205.5" x2="347.3" y2="205.5"/>
	<path id="XMLID_97_" class="st2" d="M315.3,244.3c1.8,0.2,12.8,1.5,22.2-6.5c8.4-7.2,9.6-16.9,9.8-18.9"/>
	<g id="XMLID_32_">
		<polyline id="XMLID_33_" class="st17" points="250.9,127.6 184.7,127.6 184.7,55.9 224.7,94.4 251.3,55.9 		"/>
		<polyline id="XMLID_30_" class="st18" points="251.3,55.9 278,94.4 317.1,55.9 317.1,127.6 250.9,127.6 		"/>
	</g>
	<path id="XMLID_55_" class="st19" d="M228.5,339.3h73.6h-0.9c7.8,0,14.2-6.4,14.2-14.2v-0.5c0-7.8-6.4-14.2-14.2-14.2H199.7
		c-7.8,0-14.2-6.4-14.2-14.2v-0.5c0-7.8,6.4-14.2,14.2-14.2h37.4"/>
	<line id="XMLID_35_" class="st5" x1="251.3" y1="332.1" x2="251.3" y2="255.8"/>
	<line id="XMLID_56_" class="st19" x1="276.1" y1="281.6" x2="316.5" y2="281.6"/>
</g>
</svg>
