<?xml version="1.0" encoding="utf-8"?>
<!-- Generator: Adobe Illustrator 19.0.0, SVG Export Plug-In . SVG Version: 6.00 Build 0)  -->
<svg version="1.1" id="Layer_2" xmlns="http://www.w3.org/2000/svg" xmlns:xlink="http://www.w3.org/1999/xlink" x="0px" y="0px"
	 viewBox="0 0 500 500" style="enable-background:new 0 0 500 500;" xml:space="preserve">
<style type="text/css">
	.st0{clip-path:url(#XMLID_82_);}
	.st1{clip-path:url(#XMLID_84_);}
	.st2{fill:#FFF8EC;}
	.st3{fill:#BAE2D9;}
	.st4{fill:none;stroke:#EB747D;stroke-width:11.8596;stroke-miterlimit:10;}
	.st5{fill:#EB747D;}
	.st6{fill:#F69386;}
	.st7{fill:#243D82;}
	.st8{fill:#F9D5B4;}
	.st9{fill:#F8A385;}
	.st10{fill:#263A7F;}
	.st11{fill:none;stroke:#FAD7B3;stroke-width:7.425;stroke-linecap:round;stroke-linejoin:round;stroke-miterlimit:10;}
	.st12{fill:#F9BC9D;}
	.st13{fill:none;stroke:#FFF1CA;stroke-width:7.425;stroke-linejoin:round;stroke-miterlimit:10;}
	.st14{fill:#F8A186;}
	.st15{fill:#EB737C;}
	.st16{fill:#F8D5B4;}
	.st17{fill:none;stroke:#F8A186;stroke-width:11.8596;stroke-miterlimit:10;}
	.st18{fill:#FFF1CA;}
	.st19{clip-path:url(#XMLID_86_);}
	.st20{fill:none;stroke:#9CD6C6;stroke-width:7.425;stroke-linecap:round;stroke-linejoin:round;stroke-miterlimit:10;}
	.st21{fill:#EA747D;}
	.st22{fill:#EE8380;}
	.st23{fill:#F69387;}
	.st24{clip-path:url(#XMLID_88_);}
	.st25{clip-path:url(#XMLID_89_);}
	.st26{clip-path:url(#XMLID_91_);}
	.st27{clip-path:url(#XMLID_93_);}
	.st28{clip-path:url(#XMLID_95_);}
	.st29{clip-path:url(#XMLID_97_);}
</style>
<g id="Layer_2">
	<g id="XMLID_1075_">
		<g id="XMLID_1138_">
			<g id="XMLID_1139_">
				<defs>
					<rect id="XMLID_1140_" x="168.9" y="377.9" width="31.6" height="58.1"/>
				</defs>
				<clipPath id="XMLID_77_">
					<use xlink:href="#XMLID_1140_"  style="overflow:visible;"/>
				</clipPath>
			</g>
		</g>
		<g id="XMLID_1108_">
			<g id="XMLID_1109_">
				<defs>
					<rect id="XMLID_1110_" x="225.9" y="377.9" width="43.3" height="58.1"/>
				</defs>
				<clipPath id="XMLID_82_">
					<use xlink:href="#XMLID_1110_"  style="overflow:visible;"/>
				</clipPath>
				<g id="XMLID_1111_" class="st0">
					<defs>
						<rect id="XMLID_1112_" x="231.6" y="377.9" width="41.7" height="59.4"/>
					</defs>
					<clipPath id="XMLID_83_">
						<use xlink:href="#XMLID_1112_"  style="overflow:visible;"/>
					</clipPath>
				</g>
			</g>
		</g>
		<g id="XMLID_1076_">
			<g id="XMLID_1077_">
				<defs>
					<rect id="XMLID_1078_" x="292.5" y="377.9" width="30.5" height="58.1"/>
				</defs>
				<clipPath id="XMLID_84_">
					<use xlink:href="#XMLID_1078_"  style="overflow:visible;"/>
				</clipPath>
				<g id="XMLID_1079_" class="st1">
					<defs>
						<rect id="XMLID_1080_" x="281.4" y="377.9" width="41.7" height="59.4"/>
					</defs>
					<clipPath id="XMLID_85_">
						<use xlink:href="#XMLID_1080_"  style="overflow:visible;"/>
					</clipPath>
				</g>
			</g>
		</g>
	</g>
	<g id="XMLID_962_">
		<g id="XMLID_1073_">
			<rect id="XMLID_1074_" x="2.5" class="st2" width="495" height="500"/>
		</g>
		<g id="XMLID_1071_">
			<rect id="XMLID_1072_" y="377.9" class="st3" width="500" height="122.1"/>
		</g>
		<g id="XMLID_1057_">
			<path id="XMLID_1070_" class="st4" d="M266.4,162.4h17.5h1.5c0.3,0,0.7,0,1.2,0c6.1,0.3,10.3,5.9,12,8.2c4.5,6,5.4,12.4,5.9,15.8
				c0.3,2.2,0.3,4,0.3,5.3l0,25.4"/>
			<g id="XMLID_1058_">
				<g id="XMLID_1068_">
					<path id="XMLID_1069_" class="st5" d="M266.2,180.4c6.3,0,11.5-5.2,11.5-11.5V168c0-6.3-5.2-11.5-11.5-11.5"/>
				</g>
				<g id="XMLID_1066_">
					<path id="XMLID_1067_" class="st6" d="M266.2,156.4h-0.6c-6.3,0-11.5,5.2-11.5,11.5v0.9c0,6.3,5.2,11.5,11.5,11.5h0.6"/>
				</g>
				<path id="XMLID_1065_" class="st7" d="M266.1,166.8L266.1,166.8c0.9,0,1.7-0.7,1.7-1.7l0,0c0-0.9-0.7-1.7-1.7-1.7l0,0
					c-0.9,0-1.7,0.7-1.7,1.7l0,0C264.5,166.1,265.2,166.8,266.1,166.8z"/>
				<g id="XMLID_1063_">
					<path id="XMLID_1064_" class="st8" d="M266.2,180.4h-19.6V171h10.2C261.9,171,266.2,175.2,266.2,180.4L266.2,180.4z"/>
				</g>
				<g id="XMLID_1061_">
					<path id="XMLID_1062_" class="st9" d="M236.7,180.4h9.8V171h-0.4C240.9,171,236.7,175.2,236.7,180.4L236.7,180.4z"/>
				</g>
				<g id="XMLID_1059_">
					<path id="XMLID_1060_" class="st10" d="M236.7,180.4h9.8v9.4h-0.4C240.9,189.9,236.7,185.6,236.7,180.4L236.7,180.4z"/>
				</g>
			</g>
		</g>
		<g id="XMLID_1025_">
			<g id="XMLID_1054_">
				<polyline id="XMLID_1056_" class="st11" points="148.8,305.8 227.8,305.8 192.2,270.1 				"/>
				<path id="XMLID_1055_" class="st12" d="M148.8,302.1c-6,0-10.8,4.8-10.8,10.8c0,6,4.8,10.8,10.8,10.8"/>
			</g>
			<line id="XMLID_1053_" class="st13" x1="185.4" y1="275.2" x2="185.4" y2="377.9"/>
			<g id="XMLID_1041_">
				<path id="XMLID_1052_" class="st14" d="M174.6,267.8c0,6,4.8,10.8,10.8,10.8s10.8-4.8,10.8-10.8"/>
				<g id="XMLID_1042_">
					<g id="XMLID_1047_">
						<g id="XMLID_1050_">
							<path id="XMLID_1051_" class="st15" d="M174.6,213.6c-15,0-27.1,12.1-27.1,27.1c0,15,12.1,27.1,27.1,27.1"/>
						</g>
						<g id="XMLID_1048_">
							<path id="XMLID_1049_" class="st14" d="M174.6,225.6c-8.3,0-15.1,6.8-15.1,15.1c0,8.3,6.8,15.1,15.1,15.1"/>
						</g>
					</g>
					<path id="XMLID_1046_" class="st14" d="M224.8,253.9v13.8v0h-50.2l0-54.2h9.8C206.6,213.6,224.8,231.7,224.8,253.9z"/>
					<g id="XMLID_1044_">
						<path id="XMLID_1045_" class="st12" d="M210,248.2v7.8v0h-35.4l0-30.4h6.9C197.2,225.5,210,235.7,210,248.2z"/>
					</g>
					<path id="XMLID_1043_" class="st16" d="M174.6,267.8h62.1c0.1-6.5-5.2-11.9-11.7-11.9h-50.4V267.8z"/>
				</g>
			</g>
			<path id="XMLID_1040_" class="st17" d="M174.6,261.8h-32.2c-0.4,0-1.9,0-2.3,0c-4.5,0-4.5,0-4.6,0c-3.5-0.2-6.3-2.3-7.3-3.1
				c-1.3-1.1-2.2-2.5-3.9-5.1c-1.4-2.2-2.1-3.3-2.6-5.1c-0.8-2.8-0.6-5.1-0.5-5.9c0.1-1,0.4-2.9,1.7-5c1.1-1.8,2.5-2.7,3.4-3.4
				c1.1-0.8,3.6-3,8.5-7.3c4.2-3.7,6.2-5.9,7.6-7.6c0.9-1.1,1.8-2.4,2.6-3.9c0.5-0.9,1.1-2,1.7-3.6c0.4-1.2,1.1-3.3,1.2-6
				c0.1-1.7,0.2-3.4-0.5-5.6c-0.8-2.5-2.1-4.1-3.1-5.3c-2.2-2.6-4.6-3.9-5.4-4.3c-2.3-1.2-4.4-1.6-6-1.9c-0.5-0.1-2.6-0.4-4.9-0.5
				c-0.2,0-0.3,0-2.6,0c-0.2,0-1.9,0-2.2,0"/>
			<g id="XMLID_1030_">
				<g id="XMLID_1038_">
					<path id="XMLID_1039_" class="st14" d="M122.9,206.5c6.3,0,11.5-5.2,11.5-11.5V194c0-6.3-5.2-11.5-11.5-11.5"/>
				</g>
				<g id="XMLID_1036_">
					<path id="XMLID_1037_" class="st12" d="M122.9,182.5h-0.6c-6.3,0-11.5,5.2-11.5,11.5v0.9c0,6.3,5.2,11.5,11.5,11.5h0.6"/>
				</g>
				<path id="XMLID_1035_" class="st7" d="M122.9,192.9L122.9,192.9c0.9,0,1.7-0.7,1.7-1.7l0,0c0-0.9-0.7-1.7-1.7-1.7h0
					c-0.9,0-1.7,0.7-1.7,1.7l0,0C121.2,192.1,122,192.9,122.9,192.9z"/>
				<path id="XMLID_1034_" class="st18" d="M122.9,206.5h-19.6V197h10.2C118.7,197,122.9,201.3,122.9,206.5L122.9,206.5z"/>
				<path id="XMLID_1033_" class="st16" d="M93.5,206.5h9.8V197h-0.4C97.7,197,93.5,201.3,93.5,206.5L93.5,206.5z"/>
				<g id="XMLID_1031_">
					<path id="XMLID_1032_" class="st10" d="M93.5,206.5h9.8v9.4h-0.4C97.7,215.9,93.5,211.7,93.5,206.5L93.5,206.5z"/>
				</g>
			</g>
			<g id="XMLID_1026_">
				<defs>
					<rect id="XMLID_1027_" x="168.9" y="377.9" width="31.6" height="58.1"/>
				</defs>
				<clipPath id="XMLID_86_">
					<use xlink:href="#XMLID_1027_"  style="overflow:visible;"/>
				</clipPath>
				<g id="XMLID_1028_" class="st19">
					<path id="XMLID_1029_" class="st20" d="M185.5,377.9c0,7.3-8.3,7.3-8.3,14.7c0,7.3,8.3,7.3,8.3,14.7c0,7.3-8.3,7.3-8.3,14.7
						c0,7.3,8.3,7.3,8.3,14.7c0,7.3-8.3,7.3-8.3,14.7c0,7.3,8.3,7.3,8.3,14.7c0,7.3-8.3,7.3-8.3,14.7"/>
				</g>
			</g>
		</g>
		<g id="XMLID_995_">
			<line id="XMLID_1024_" class="st13" x1="247.9" y1="275.2" x2="247.9" y2="377.9"/>
			<path id="XMLID_1023_" class="st21" d="M237.1,267.8c0,6,4.8,10.8,10.8,10.8c6,0,10.8-4.8,10.8-10.8"/>
			<g id="XMLID_1021_">
				<path id="XMLID_1022_" class="st21" d="M237.1,213.6c-15,0-27.1,12.1-27.1,27.1c0,15,12.1,27.1,27.1,27.1"/>
			</g>
			<g id="XMLID_1019_">
				<path id="XMLID_1020_" class="st22" d="M237.1,225.6c-8.3,0-15.1,6.8-15.1,15.1c0,8.3,6.8,15.1,15.1,15.1"/>
			</g>
			<path id="XMLID_1018_" class="st21" d="M287.3,253.9v13.8v0h-50.2l0-54.2h9.8C269.2,213.6,287.3,231.7,287.3,253.9z"/>
			<g id="XMLID_1016_">
				<path id="XMLID_1017_" class="st23" d="M272.5,248.2v7.8v0h-35.4l0-30.4h6.9C259.7,225.5,272.5,235.7,272.5,248.2z"/>
			</g>
			<path id="XMLID_1015_" class="st14" d="M237.1,267.8h62.1c0.1-6.5-5.2-11.9-11.7-11.9h-50.4V267.8z"/>
			<line id="XMLID_1014_" class="st4" x1="216" y1="240.7" x2="216" y2="140.1"/>
			<g id="XMLID_1002_">
				<g id="XMLID_1012_">
					<path id="XMLID_1013_" class="st5" d="M210.1,139.8c0,6.3,5.2,11.5,11.5,11.5h0.9c6.3,0,11.5-5.2,11.5-11.5"/>
				</g>
				<g id="XMLID_1010_">
					<path id="XMLID_1011_" class="st6" d="M234.1,139.8v-0.6c0-6.3-5.2-11.5-11.5-11.5h-0.9c-6.3,0-11.5,5.2-11.5,11.5v0.6"/>
				</g>
				<path id="XMLID_1009_" class="st7" d="M223.7,139.8L223.7,139.8c0,0.9,0.7,1.7,1.7,1.7l0,0c0.9,0,1.7-0.7,1.7-1.7l0,0
					c0-0.9-0.7-1.7-1.7-1.7l0,0C224.5,138.1,223.7,138.9,223.7,139.8z"/>
				<g id="XMLID_1007_">
					<path id="XMLID_1008_" class="st8" d="M210.1,139.8v-19.6h9.4v10.2C219.5,135.6,215.3,139.8,210.1,139.8L210.1,139.8z"/>
				</g>
				<g id="XMLID_1005_">
					<path id="XMLID_1006_" class="st9" d="M210.1,110.4v9.8h9.4v-0.4C219.5,114.6,215.3,110.4,210.1,110.4L210.1,110.4z"/>
				</g>
				<g id="XMLID_1003_">
					<path id="XMLID_1004_" class="st10" d="M210.1,110.4v9.8h-9.4v-0.4C200.7,114.6,204.9,110.4,210.1,110.4L210.1,110.4z"/>
				</g>
			</g>
			<g id="XMLID_996_">
				<defs>
					<rect id="XMLID_997_" x="225.9" y="377.9" width="43.3" height="58.1"/>
				</defs>
				<clipPath id="XMLID_88_">
					<use xlink:href="#XMLID_997_"  style="overflow:visible;"/>
				</clipPath>
				<g id="XMLID_998_" class="st24">
					<defs>
						<rect id="XMLID_999_" x="231.6" y="377.9" width="41.7" height="59.4"/>
					</defs>
					<clipPath id="XMLID_89_">
						<use xlink:href="#XMLID_999_"  style="overflow:visible;"/>
					</clipPath>
					<g id="XMLID_1000_" class="st25">
						<path id="XMLID_1001_" class="st20" d="M248,377.9c0,7.3-8.3,7.3-8.3,14.7c0,7.3,8.3,7.3,8.3,14.7c0,7.3-8.3,7.3-8.3,14.7
							c0,7.3,8.3,7.3,8.3,14.7c0,7.3-8.3,7.3-8.3,14.7c0,7.3,8.3,7.3,8.3,14.7c0,7.3-8.3,7.3-8.3,14.7"/>
					</g>
				</g>
			</g>
		</g>
		<g id="XMLID_963_">
			<g id="XMLID_992_">
				<polyline id="XMLID_994_" class="st11" points="347.8,305.8 268.8,305.8 304.5,270.1 				"/>
				<path id="XMLID_993_" class="st12" d="M347.8,302.1c6,0,10.8,4.8,10.8,10.8c0,6-4.8,10.8-10.8,10.8"/>
			</g>
			<line id="XMLID_991_" class="st13" x1="311.2" y1="275.2" x2="311.2" y2="377.9"/>
			<path id="XMLID_990_" class="st14" d="M322,267.8c0,6-4.8,10.8-10.8,10.8c-6,0-10.8-4.8-10.8-10.8"/>
			<g id="XMLID_985_">
				<g id="XMLID_988_">
					<path id="XMLID_989_" class="st15" d="M322,213.6c15,0,27.1,12.1,27.1,27.1c0,15-12.1,27.1-27.1,27.1"/>
				</g>
				<g id="XMLID_986_">
					<path id="XMLID_987_" class="st14" d="M322,225.6c8.3,0,15.1,6.8,15.1,15.1c0,8.3-6.8,15.1-15.1,15.1"/>
				</g>
			</g>
			<path id="XMLID_984_" class="st14" d="M271.8,253.9v13.8v0H322l0-54.2h-9.8C290,213.6,271.8,231.7,271.8,253.9z"/>
			<g id="XMLID_982_">
				<path id="XMLID_983_" class="st12" d="M286.6,248.2v7.8v0H322l0-30.4h-6.9C299.4,225.5,286.6,235.7,286.6,248.2z"/>
			</g>
			<path id="XMLID_981_" class="st16" d="M322,267.8h-62.1c-0.1-6.5,5.2-11.9,11.7-11.9H322V267.8z"/>
			<path id="XMLID_980_" class="st17" d="M322,261.8h32.2c0.4,0,1.9,0,2.3,0c4.5,0,4.5,0,4.6,0c3.5-0.2,6.3-2.3,7.3-3.1
				c1.3-1.1,2.2-2.5,3.9-5.1c1.4-2.2,2.1-3.3,2.6-5.1c0.8-2.8,0.6-5.1,0.5-5.9c-0.1-1-0.4-2.9-1.7-5c-1.1-1.8-2.5-2.7-3.4-3.4
				c-1.1-0.8-3.6-3-8.5-7.3c-4.2-3.7-6.2-5.9-7.6-7.6c-0.9-1.1-1.8-2.4-2.6-3.9c-0.5-0.9-1.1-2-1.7-3.6c-0.4-1.2-1.1-3.3-1.2-6
				c-0.1-1.7-0.2-3.4,0.5-5.6c0.8-2.5,2.1-4.1,3.1-5.3c2.2-2.6,4.6-3.9,5.4-4.3c2.3-1.2,4.4-1.6,6-1.9c0.5-0.1,2.6-0.4,5-0.5
				c0.2,0,0.3,0,2.6,0c0.2,0,1.9,0,2.2,0"/>
			<g id="XMLID_970_">
				<g id="XMLID_978_">
					<path id="XMLID_979_" class="st14" d="M373.7,206.5c-6.3,0-11.5-5.2-11.5-11.5V194c0-6.3,5.2-11.5,11.5-11.5"/>
				</g>
				<g id="XMLID_976_">
					<path id="XMLID_977_" class="st12" d="M373.7,182.5h0.6c6.3,0,11.5,5.2,11.5,11.5v0.9c0,6.3-5.2,11.5-11.5,11.5h-0.6"/>
				</g>
				<path id="XMLID_975_" class="st7" d="M373.7,192.9L373.7,192.9c-0.9,0-1.7-0.7-1.7-1.7l0,0c0-0.9,0.7-1.7,1.7-1.7l0,0
					c0.9,0,1.7,0.7,1.7,1.7l0,0C375.4,192.1,374.6,192.9,373.7,192.9z"/>
				<path id="XMLID_974_" class="st18" d="M373.7,206.5h19.6V197h-10.2C377.9,197,373.7,201.3,373.7,206.5L373.7,206.5z"/>
				<path id="XMLID_973_" class="st16" d="M403.1,206.5h-9.8V197h0.4C398.9,197,403.1,201.3,403.1,206.5L403.1,206.5z"/>
				<g id="XMLID_971_">
					<path id="XMLID_972_" class="st10" d="M403.1,206.5h-9.8v9.4h0.4C398.9,215.9,403.1,211.7,403.1,206.5L403.1,206.5z"/>
				</g>
			</g>
			<g id="XMLID_964_">
				<defs>
					<rect id="XMLID_965_" x="292.5" y="377.9" width="30.5" height="58.1"/>
				</defs>
				<clipPath id="XMLID_91_">
					<use xlink:href="#XMLID_965_"  style="overflow:visible;"/>
				</clipPath>
				<g id="XMLID_966_" class="st26">
					<defs>
						<rect id="XMLID_967_" x="281.4" y="377.9" width="41.7" height="59.4"/>
					</defs>
					<clipPath id="XMLID_93_">
						<use xlink:href="#XMLID_967_"  style="overflow:visible;"/>
					</clipPath>
					<g id="XMLID_968_" class="st27">
						<path id="XMLID_969_" class="st20" d="M311.2,377.9c0,7.3-8.3,7.3-8.3,14.7c0,7.3,8.3,7.3,8.3,14.7c0,7.3-8.3,7.3-8.3,14.7
							c0,7.3,8.3,7.3,8.3,14.7c0,7.3-8.3,7.3-8.3,14.7c0,7.3,8.3,7.3,8.3,14.7c0,7.3-8.3,7.3-8.3,14.7"/>
					</g>
				</g>
			</g>
		</g>
	</g>
	<g id="XMLID_849_">
		<g id="XMLID_912_">
			<g id="XMLID_913_">
				<defs>
					<rect id="XMLID_914_" x="168.9" y="377.9" width="31.6" height="58.1"/>
				</defs>
				<clipPath id="XMLID_94_">
					<use xlink:href="#XMLID_914_"  style="overflow:visible;"/>
				</clipPath>
			</g>
		</g>
		<g id="XMLID_882_">
			<g id="XMLID_883_">
				<defs>
					<rect id="XMLID_884_" x="225.9" y="377.9" width="43.3" height="58.1"/>
				</defs>
				<clipPath id="XMLID_95_">
					<use xlink:href="#XMLID_884_"  style="overflow:visible;"/>
				</clipPath>
				<g id="XMLID_885_" class="st28">
					<defs>
						<rect id="XMLID_886_" x="231.6" y="377.9" width="41.7" height="59.4"/>
					</defs>
					<clipPath id="XMLID_96_">
						<use xlink:href="#XMLID_886_"  style="overflow:visible;"/>
					</clipPath>
				</g>
			</g>
		</g>
		<g id="XMLID_850_">
			<g id="XMLID_851_">
				<defs>
					<rect id="XMLID_852_" x="292.5" y="377.9" width="30.5" height="58.1"/>
				</defs>
				<clipPath id="XMLID_97_">
					<use xlink:href="#XMLID_852_"  style="overflow:visible;"/>
				</clipPath>
				<g id="XMLID_853_" class="st29">
					<defs>
						<rect id="XMLID_854_" x="281.4" y="377.9" width="41.7" height="59.4"/>
					</defs>
					<clipPath id="XMLID_98_">
						<use xlink:href="#XMLID_854_"  style="overflow:visible;"/>
					</clipPath>
				</g>
			</g>
		</g>
	</g>
</g>
</svg>
