<?xml version="1.0" encoding="utf-8"?>
<!-- Generator: Adobe Illustrator 19.0.0, SVG Export Plug-In . SVG Version: 6.00 Build 0)  -->
<svg version="1.1" id="Layer_2" xmlns="http://www.w3.org/2000/svg" xmlns:xlink="http://www.w3.org/1999/xlink" x="0px" y="0px"
	 viewBox="0 0 500 500" style="enable-background:new 0 0 500 500;" xml:space="preserve">
<style type="text/css">
	.st0{fill:#EF515F;}
	.st1{fill:#E6E6E5;}
	.st2{fill:#B4B3B4;}
	.st3{fill:#989898;}
	.st4{fill:#1F4657;}
	.st5{fill:#0A2332;}
	.st6{fill:#204558;}
	.st7{fill:#E39025;}
	.st8{fill:#FCF7DC;}
	.st9{fill:#FDF6DB;}
	.st10{fill:#991E3A;}
	.st11{clip-path:url(#XMLID_72_);}
	.st12{clip-path:url(#XMLID_74_);fill:#991E3A;}
	.st13{clip-path:url(#XMLID_75_);}
	.st14{clip-path:url(#XMLID_76_);fill:#991E3A;}
	.st15{fill:#9A1D3B;}
	.st16{fill:#FFFFFD;}
	.st17{fill:#F8AAAB;}
	.st18{fill:#FBAB23;}
	.st19{fill:#FDF6D9;}
	.st20{fill:#961F3A;}
	.st21{fill:none;stroke:#FBAC22;stroke-width:0.6376;stroke-miterlimit:10;}
	.st22{fill:#112C3D;}
	.st23{fill:#2C475A;}
</style>
<rect id="XMLID_1_" x="-188" y="-50" class="st0" width="876" height="600"/>
<g id="XMLID_198_">
	<g id="XMLID_46_">
		<g id="XMLID_4_">
			<polyline id="XMLID_5_" class="st1" points="162.6,193.3 152.6,193.3 152.6,26.9 162.6,17.8 			"/>
			<polyline id="XMLID_6_" class="st2" points="162.6,17.8 172.6,26.9 172.6,193.3 162.6,193.3 			"/>
		</g>
		<g id="XMLID_7_">
			<g id="XMLID_231_">
				<g id="XMLID_234_">
					<polyline id="XMLID_235_" class="st3" points="162.6,193.3 160.2,193.3 160.2,125.3 162.6,121.6 					"/>
				</g>
				<g id="XMLID_232_">
					<polyline id="XMLID_233_" class="st3" points="162.6,121.6 165,125.3 165,193.3 162.6,193.3 					"/>
				</g>
			</g>
		</g>
		<path id="XMLID_10_" class="st4" d="M182.8,197.5h-40.3l-2.4-3.5c-0.1-0.4,0.1-0.8,0.4-0.8h44.4c0.3,0,0.5,0.4,0.4,0.8
			L182.8,197.5z"/>
		<rect id="XMLID_11_" x="159.9" y="197.5" class="st5" width="5.5" height="24.4"/>
		<circle id="XMLID_12_" class="st6" cx="162.6" cy="227.7" r="7.6"/>
	</g>
	<path id="XMLID_70_" class="st7" d="M280.1,293.4h-34.6c-19.1,0-34.6-15.5-34.6-34.6v-47c0-19.1,15.5-34.6,34.6-34.6h0
		c19.1,0,34.6,15.5,34.6,34.6V293.4z"/>
	<rect id="XMLID_43_" x="236.8" y="266.6" class="st8" width="19.7" height="37.6"/>
	<rect id="XMLID_107_" x="228.4" y="264.2" class="st9" width="36.3" height="14.6"/>
	<circle id="XMLID_3_" class="st6" cx="238" cy="280" r="9.6"/>
	<circle id="XMLID_15_" class="st6" cx="255.3" cy="280" r="9.6"/>
	<rect id="XMLID_17_" x="232" y="280" class="st6" width="29.1" height="14.3"/>
	<path id="XMLID_18_" class="st6" d="M235.6,275.2L235.6,275.2c-0.7,0-1.3-0.6-1.3-1.3v-10.2c0-0.7,0.6-1.3,1.3-1.3l0,0
		c0.7,0,1.3,0.6,1.3,1.3v10.2C236.8,274.6,236.3,275.2,235.6,275.2z"/>
	<path id="XMLID_19_" class="st6" d="M257.4,275.2L257.4,275.2c-0.7,0-1.3-0.6-1.3-1.3v-10.2c0-0.7,0.6-1.3,1.3-1.3l0,0
		c0.7,0,1.3,0.6,1.3,1.3v10.2C258.7,274.6,258.1,275.2,257.4,275.2z"/>
	<g id="XMLID_45_">
		<path id="XMLID_22_" class="st8" d="M234.6,399c-2.1,4.1-4.9,10.5-6,18.7c-0.9,6.5-0.6,12.1,0,16.2l16.2,0.6v-89.8h-25.1
			c-1,5.7-1.8,15.1,0.6,26.2c3.1,13.9,9.8,23.4,13.7,28.1"/>
		<polyline id="XMLID_53_" class="st8" points="228.6,433.9 244.8,434.5 244.8,344.7 		"/>
	</g>
	<g id="XMLID_59_">
		<g id="XMLID_52_">
			<rect id="XMLID_37_" x="246.6" y="433.5" class="st10" width="26.4" height="7.7"/>
			<g id="XMLID_49_">
				<g id="XMLID_44_">
					<defs>
						<rect id="XMLID_42_" x="248.9" y="441.3" width="21.9" height="36.4"/>
					</defs>
					<clipPath id="XMLID_72_">
						<use xlink:href="#XMLID_42_"  style="overflow:visible;"/>
					</clipPath>
					<g id="XMLID_41_" class="st11">
						<defs>
							<rect id="XMLID_40_" x="240.2" y="441.3" width="34.2" height="36.4"/>
						</defs>
						<clipPath id="XMLID_74_">
							<use xlink:href="#XMLID_40_"  style="overflow:visible;"/>
						</clipPath>
						<path id="XMLID_38_" class="st12" d="M240.2,495.4c4.8-4,10.6-9.8,15.9-17.7c9.2-13.8,12.4-28.3,13.7-36.4H255"/>
					</g>
				</g>
				<polyline id="XMLID_39_" class="st10" points="255,441.3 248.9,441.3 248.9,477.6 				"/>
			</g>
			<path id="XMLID_50_" class="st10" d="M248.9,481h20l-1-1.8c-0.5-0.9-1.5-1.5-2.5-1.5h-16.4V481z"/>
		</g>
		<g id="XMLID_60_">
			<rect id="XMLID_69_" x="220.2" y="433.5" class="st10" width="26.4" height="7.7"/>
			<g id="XMLID_62_">
				<g id="XMLID_64_">
					<defs>
						<rect id="XMLID_65_" x="222.5" y="441.3" width="21.9" height="36.4"/>
					</defs>
					<clipPath id="XMLID_75_">
						<use xlink:href="#XMLID_65_"  style="overflow:visible;"/>
					</clipPath>
					<g id="XMLID_66_" class="st13">
						<defs>
							<rect id="XMLID_67_" x="218.8" y="441.3" width="34.2" height="36.4"/>
						</defs>
						<clipPath id="XMLID_76_">
							<use xlink:href="#XMLID_67_"  style="overflow:visible;"/>
						</clipPath>
						<path id="XMLID_68_" class="st14" d="M253.1,495.4c-4.8-4-10.6-9.8-15.9-17.7c-9.2-13.8-12.4-28.3-13.7-36.4h14.8"/>
					</g>
				</g>
				<polyline id="XMLID_63_" class="st10" points="238.3,441.3 244.3,441.3 244.3,477.6 				"/>
			</g>
			<path id="XMLID_61_" class="st10" d="M244.3,481h-20l1-1.8c0.5-0.9,1.5-1.5,2.5-1.5h16.4V481z"/>
		</g>
	</g>
	<g id="XMLID_118_">
		<g id="XMLID_110_">
			<path id="XMLID_114_" class="st8" d="M247.4,180.7c10.4,0,17.8,7.3,23.6,15.8c1.7,2.5,2,4.9,2.9,7.4c1.2,3.6,1.8,7.5,1.8,12.2
				c0,3.2,0,6.4-0.3,9.5c-0.4,3.8-0.2,7.4-2,10.5c-2.4,4.2-7.5,7-11.3,9.7c-5,3.6-8.3,4.8-14.7,4.8c-6.4,0-9.7-1.2-14.7-4.8
				c-3.8-2.8-8.9-5.5-11.3-9.7c-1.7-3-1.6-6.6-2-10.5c-0.3-3.1-0.3-6.4-0.3-9.5c0-4.7,0.5-8.6,1.8-12.2c0.9-2.5,1.2-5,2.9-7.4
				C229.6,188,237,180.7,247.4,180.7z"/>
		</g>
		<path id="XMLID_115_" class="st8" d="M217.8,231.8h2.3v-13.5h-2.3c-1.3,0-2.3,1-2.3,2.3l0,0c-0.6,2.9-0.6,5.9,0,8.8l0,0
			C215.5,230.7,216.5,231.8,217.8,231.8z"/>
	</g>
	<g id="XMLID_108_">
		<path id="XMLID_84_" class="st15" d="M242.4,212.5c-0.6,0.1-1.5,0.2-2.5,0.2c-0.9,0-2.8,0.1-5-0.2c-1.7-0.3-3.4-0.5-4.8-1.4
			c-3.4-2-4-6.7-4.1-8l0.2-0.6c1.7-0.4,4.7-0.8,8,0.2c1.4,0.4,6.4,2,7.7,6.4c0.5,1.5,0.4,2.8,0.2,3.6"/>
		<path id="XMLID_85_" class="st15" d="M250.9,212.5c0.6,0.1,1.5,0.2,2.5,0.2c0.9,0,2.8,0.1,5-0.2c1.7-0.3,3.4-0.5,4.8-1.4
			c3.4-2,4-6.7,4.1-8l-0.2-0.6c-1.7-0.4-4.7-0.8-8,0.2c-1.4,0.4-6.4,2-7.7,6.4c-0.5,1.5-0.4,2.8-0.2,3.6"/>
		<g id="XMLID_102_">
			<path id="XMLID_86_" class="st15" d="M254.2,242.1h-15.5v-19.4c0-4.2,3.4-7.5,7.5-7.5h0.5c4.2,0,7.5,3.4,7.5,7.5V242.1z"/>
			<path id="XMLID_92_" class="st16" d="M240.2,218.7c1.4-1.8,3.6-3,6-3h0.5c2.5,0,4.8,1.3,6.1,3.2"/>
			<polygon id="XMLID_82_" class="st16" points="242.7,221.4 241.2,218.6 244.4,218.7 			"/>
			<g id="XMLID_99_">
				<path id="XMLID_97_" class="st17" d="M238.8,242.1c0.9-3.1,3.9-5.4,7.5-5.4h0.5c3.6,0,6.6,2.3,7.5,5.4"/>
				<polyline id="XMLID_87_" class="st17" points="254.2,244.1 253.1,242.1 254.2,242.1 				"/>
				<polyline id="XMLID_104_" class="st17" points="238.8,244.1 239.9,242.1 238.8,242.1 				"/>
			</g>
		</g>
	</g>
	<rect id="XMLID_111_" x="240.5" y="248.8" class="st8" width="12.3" height="19"/>
	<path id="XMLID_112_" class="st8" d="M223.5,239.5"/>
	<path id="XMLID_73_" class="st18" d="M214.1,198.2c1.3-2.7,7.4-14.1,21-18.7c9.2-3.1,17.1-1.4,19.1-0.9c1.7,0.4,11,2.8,18.2,11.4
		c8.4,10,8.8,22.4,9.1,30.1c0.4,10.3,0,15.9,0,15.9c-0.3,4.5-0.6,5.8,0,8.2c2.1,7.5,9.8,9.3,9.1,11.4c-0.7,2.3-11.3,2.9-19.5-2.4
		c-1.2-0.8-5.2-3.5-8.3-9.4c-6.2-11.5,0.1-18-4.6-28.2c-5-11.1-17.3-15.1-20-15.9c-12-3.6-22.1,0.7-24.6,1.8"/>
	
		<rect id="XMLID_106_" x="161.7" y="237.8" transform="matrix(0.7273 0.6863 -0.6863 0.7273 220.4073 -70.2991)" class="st19" width="74" height="8.8"/>
	
		<rect id="XMLID_24_" x="255.9" y="288.4" transform="matrix(0.7273 0.6863 -0.6863 0.7273 280.8487 -121.2009)" class="st19" width="74" height="8.8"/>
	<polyline id="XMLID_109_" class="st19" points="222.6,270.8 228.4,270.8 228.6,264.4 	"/>
	<rect id="XMLID_117_" x="264.7" y="264.2" class="st19" width="4.4" height="8.3"/>
	<g id="XMLID_47_">
		<path id="XMLID_78_" class="st8" d="M258.6,399c2.1,4.1,4.9,10.5,6,18.7c0.9,6.5,0.6,12.1,0,16.2l-16.2,0.6v-89.8h25.1
			c1,5.7,1.8,15.1-0.6,26.2c-3.1,13.9-9.8,23.4-13.7,28.1"/>
		<polyline id="XMLID_51_" class="st8" points="264.7,433.9 248.5,434.5 248.5,344.7 		"/>
	</g>
	<g id="XMLID_36_">
		<rect id="XMLID_20_" x="234.8" y="304.3" class="st6" width="23.7" height="5.1"/>
		<path id="XMLID_34_" class="st20" d="M258.6,308.6h-24c-0.4,0-0.8-0.3-0.8-0.8v-1.9c0-0.4,0.3-0.8,0.8-0.8h24
			c0.4,0,0.8,0.3,0.8,0.8v1.9C259.4,308.2,259,308.6,258.6,308.6z"/>
		<path id="XMLID_31_" class="st6" d="M234.8,309.4l-23.3,11.2c0,19.8,15.8,38.6,35.2,38.6s35.2-18.8,35.2-38.6l-23.3-11.2"/>
		<path id="XMLID_35_" class="st21" d="M249.8,308.5h-6.4c-0.1,0-0.2-0.1-0.2-0.2v-3c0-0.1,0.1-0.2,0.2-0.2h6.4
			c0.1,0,0.2,0.1,0.2,0.2v3C250,308.4,249.9,308.5,249.8,308.5z"/>
	</g>
	<g id="XMLID_168_">
		<ellipse id="XMLID_119_" class="st22" cx="326.7" cy="333.4" rx="63.7" ry="73.7"/>
		<ellipse id="XMLID_129_" class="st6" cx="326.7" cy="333.4" rx="35.7" ry="41.3"/>
		<ellipse id="XMLID_131_" class="st22" cx="326.7" cy="333.4" rx="7.5" ry="8.6"/>
		<circle id="XMLID_132_" class="st6" cx="326.7" cy="276.3" r="3.4"/>
		<circle id="XMLID_136_" class="st6" cx="328.1" cy="389.5" r="3.4"/>
		<circle id="XMLID_142_" class="st6" cx="277" cy="333.4" r="3.4"/>
		<circle id="XMLID_156_" class="st6" cx="291" cy="295.6" r="3.4"/>
		<circle id="XMLID_165_" class="st6" cx="362.4" cy="295.6" r="3.4"/>
		<circle id="XMLID_148_" class="st6" cx="375.9" cy="333.4" r="3.4"/>
		<circle id="XMLID_159_" class="st6" cx="362.4" cy="374.7" r="3.4"/>
		<circle id="XMLID_162_" class="st6" cx="291" cy="374.7" r="3.4"/>
	</g>
	<path id="XMLID_169_" class="st23" d="M168.7,222.3l-5.3-4.9c-2.5-2.3-2.7-6.3-0.4-8.8l0,0c2.3-2.5,6.3-2.7,8.8-0.4l5.3,4.9
		c2.5,2.3,2.7,6.3,0.4,8.8h0C175.2,224.5,171.2,224.6,168.7,222.3z"/>
	<circle id="XMLID_105_" class="st19" cx="162.6" cy="207" r="8.2"/>
</g>
</svg>
